<svg xmlns="http://www.w3.org/2000/svg" viewBox="0 0 32 32">
  <!-- Background circle -->
  <circle cx="16" cy="16" r="16" fill="#432717"/>

  <!-- Steam wisps -->
  <path d="M10 8 C10 8 9.5 6.5 10.5 6 C11.5 5.5 11 7 11 7" stroke="#F8F4ED" stroke-width="1" stroke-linecap="round" fill="none"/>
  <path d="M16 8 C16 8 15.5 6.5 16.5 6 C17.5 5.5 17 7 17 7" stroke="#F8F4ED" stroke-width="1" stroke-linecap="round" fill="none"/>
  <path d="M22 8 C22 8 21.5 6.5 22.5 6 C23.5 5.5 23 7 23 7" stroke="#F8F4ED" stroke-width="1" stroke-linecap="round" fill="none"/>

  <!-- Cup body -->
  <path d="M7 10 H25 L23.5 21 C23.3 22.1 22.3 23 21.2 23 H10.8 C9.7 23 8.7 22.1 8.5 21 Z"
        fill="#F8F4ED" opacity="0.2"/>
  <path d="M7 10 H25 L23.5 21 C23.3 22.1 22.3 23 21.2 23 H10.8 C9.7 23 8.7 22.1 8.5 21 Z"
        stroke="#F8F4ED" stroke-width="1.5" stroke-linejoin="round" fill="none"/>

  <!-- Handle -->
  <path d="M25 13 C27 13 28 14 28 16 C28 18 27 19 25 19"
        stroke="#F8F4ED" stroke-width="1.5" stroke-linecap="round" fill="none"/>

  <!-- Saucer -->
  <path d="M6 25 H26" stroke="#9A6323" stroke-width="1.5" stroke-linecap="round"/>
</svg>
